<svg enable-background="new 0 0 24 24" height="512" viewBox="0 0 24 24" width="512" xmlns="http://www.w3.org/2000/svg"><path d="m17.5 24c-3.584 0-6.5-2.916-6.5-6.5s2.916-6.5 6.5-6.5 6.5 2.916 6.5 6.5-2.916 6.5-6.5 6.5zm0-12c-3.033 0-5.5 2.467-5.5 5.5s2.467 5.5 5.5 5.5 5.5-2.467 5.5-5.5-2.467-5.5-5.5-5.5z"/><path d="m17.5 21c-.276 0-.5-.224-.5-.5v-6c0-.276.224-.5.5-.5s.5.224.5.5v6c0 .276-.224.5-.5.5z"/><path d="m20.5 18h-6c-.276 0-.5-.224-.5-.5s.224-.5.5-.5h6c.276 0 .5.224.5.5s-.224.5-.5.5z"/><path d="m9.5 15h-7.5c-1.103 0-2-.897-2-2v-10c0-1.103.897-2 2-2h18c1.103 0 2 .897 2 2v6.5c0 .276-.224.5-.5.5s-.5-.224-.5-.5v-6.5c0-.551-.449-1-1-1h-18c-.551 0-1 .449-1 1v10c0 .551.449 1 1 1h7.5c.276 0 .5.224.5.5s-.224.5-.5.5z"/><path d="m11 9.578c-.366 0-.732-.083-1.066-.248l-9.656-4.782c-.248-.123-.349-.423-.227-.67.123-.248.422-.349.67-.227l9.655 4.782c.391.193.855.193 1.246 0l9.655-4.782c.248-.124.547-.021.67.227.123.247.021.547-.227.67l-9.654 4.782c-.334.165-.7.248-1.066.248z"/></svg>